<svg width="25" height="26" viewBox="0 0 25 26" fill="none" xmlns="http://www.w3.org/2000/svg">
<mask id="mask0_5:1152" style="mask-type:alpha" maskUnits="userSpaceOnUse" x="0" y="0" width="25" height="26">
<rect y="0.5" width="25" height="25" fill="white"/>
</mask>
<g mask="url(#mask0_5:1152)">
<path fill-rule="evenodd" clip-rule="evenodd" d="M12.5 3.625C9.48792 3.625 7.03125 6.08166 7.03125 9.09375C7.03125 10.9645 7.9834 12.6246 9.42383 13.6104C6.62842 14.8005 4.6875 17.5776 4.6875 20.8125H6.25C6.25 17.3243 9.01184 14.5625 12.5 14.5625C15.9882 14.5625 18.75 17.3243 18.75 20.8125H20.3125C20.3125 17.5776 18.3716 14.8005 15.5762 13.6104C17.0166 12.6246 17.9688 10.9645 17.9688 9.09375C17.9688 6.08166 15.5121 3.625 12.5 3.625V3.625ZM12.5 5.1875C14.6667 5.1875 16.4062 6.927 16.4062 9.09375C16.4062 11.2605 14.6667 13 12.5 13C10.3333 13 8.59375 11.2605 8.59375 9.09375C8.59375 6.927 10.3333 5.1875 12.5 5.1875V5.1875Z" fill="#1A4F8B"/>
</g>
</svg>
